<svg xmlns="http://www.w3.org/2000/svg" xmlns:xlink="http://www.w3.org/1999/xlink" width="500" zoomAndPan="magnify" viewBox="0 0 375 374.999991" height="500" preserveAspectRatio="xMidYMid meet" version="1.0"><defs><g/></defs><g fill="#38b6ff" fill-opacity="1"><g transform="translate(109.08908, 211.811513)"><g><path d="M 9.515625 -94.167969 L 49.570312 -94.167969 L 49.570312 -112.351562 C 49.570312 -112.917969 49.144531 -113.628906 48.148438 -113.628906 L 9.515625 -113.628906 C 8.523438 -113.628906 7.953125 -112.917969 7.953125 -112.351562 L 7.953125 -95.449219 C 7.953125 -94.878906 8.523438 -94.167969 9.515625 -94.167969 Z M 27.980469 -74.710938 L 27.980469 -33.519531 C 27.980469 -33.519531 27.980469 -21.019531 15.625 -21.019531 L 1.5625 -21.019531 C 0.710938 -21.019531 0 -20.453125 0 -19.742188 L 0 -1.277344 C 0 -0.710938 0.710938 0 1.5625 0 L 15.625 0 C 15.625 0 49.570312 0 49.570312 -33.519531 L 49.570312 -74.710938 Z M 27.980469 -74.710938 "/></g></g></g><g fill="#38b6ff" fill-opacity="1"><g transform="translate(174.415145, 258.374983)"><g><path d="M 101.695312 -27.414062 L 123.285156 -27.414062 L 123.285156 -112.351562 C 123.285156 -112.917969 122.71875 -113.628906 121.722656 -113.628906 L 102.976562 -113.628906 C 102.40625 -113.628906 101.695312 -113.203125 101.414062 -112.777344 L 62.636719 -29.542969 L 21.875 -112.777344 C 21.730469 -113.203125 20.878906 -113.628906 20.453125 -113.628906 L 1.421875 -113.628906 C 0.425781 -113.628906 0 -112.917969 0 -112.351562 L 0 -1.277344 C 0 -0.710938 0.425781 0 1.421875 0 L 20.167969 0 C 21.019531 0 21.730469 -0.710938 21.730469 -1.277344 L 21.730469 -65.050781 L 52.554688 -5.398438 C 52.695312 -4.972656 53.546875 -4.546875 53.972656 -4.546875 L 71.445312 -4.546875 C 71.871094 -4.546875 72.578125 -4.972656 72.722656 -5.398438 L 101.695312 -63.488281 Z M 101.695312 -27.414062 "/></g></g></g></svg>