<svg xmlns="http://www.w3.org/2000/svg" xmlns:xlink="http://www.w3.org/1999/xlink" width="500" zoomAndPan="magnify" viewBox="0 0 375 374.999991" height="500" preserveAspectRatio="xMidYMid meet" version="1.0"><defs><g/></defs><g fill="#38b6ff" fill-opacity="1"><g transform="translate(33.803947, 262.811129)"><g><path d="M 16.027344 -158.597656 L 83.484375 -158.597656 L 83.484375 -189.21875 C 83.484375 -190.175781 82.769531 -191.371094 81.09375 -191.371094 L 16.027344 -191.371094 C 14.351562 -191.371094 13.394531 -190.175781 13.394531 -189.21875 L 13.394531 -160.75 C 13.394531 -159.796875 14.351562 -158.597656 16.027344 -158.597656 Z M 47.125 -125.828125 L 47.125 -56.453125 C 47.125 -56.453125 47.125 -35.402344 26.3125 -35.402344 L 2.632812 -35.402344 C 1.195312 -35.402344 0 -34.445312 0 -33.25 L 0 -2.152344 C 0 -1.195312 1.195312 0 2.632812 0 L 26.3125 0 C 26.3125 0 83.484375 0 83.484375 -56.453125 L 83.484375 -125.828125 Z M 47.125 -125.828125 "/></g></g></g><g fill="#38b6ff" fill-opacity="1"><g transform="translate(143.825546, 341.232914)"><g><path d="M 171.277344 -46.167969 L 207.636719 -46.167969 L 207.636719 -189.21875 C 207.636719 -190.175781 206.679688 -191.371094 205.007812 -191.371094 L 173.429688 -191.371094 C 172.472656 -191.371094 171.277344 -190.652344 170.800781 -189.9375 L 105.492188 -49.757812 L 36.839844 -189.9375 C 36.601562 -190.652344 35.164062 -191.371094 34.445312 -191.371094 L 2.390625 -191.371094 C 0.71875 -191.371094 0 -190.175781 0 -189.21875 L 0 -2.152344 C 0 -1.195312 0.71875 0 2.390625 0 L 33.96875 0 C 35.402344 0 36.601562 -1.195312 36.601562 -2.152344 L 36.601562 -109.558594 L 88.507812 -9.089844 C 88.75 -8.371094 90.183594 -7.65625 90.902344 -7.65625 L 120.324219 -7.65625 C 121.042969 -7.65625 122.238281 -8.371094 122.476562 -9.089844 L 171.277344 -106.929688 Z M 171.277344 -46.167969 "/></g></g></g></svg>